<?xml version="1.0" encoding="utf-8"?>
<!-- Generator: Adobe Illustrator 16.0.0, SVG Export Plug-In . SVG Version: 6.00 Build 0)  -->
<!DOCTYPE svg PUBLIC "-//W3C//DTD SVG 1.1//EN" "http://www.w3.org/Graphics/SVG/1.1/DTD/svg11.dtd">
<svg version="1.1" id="Layer_1" xmlns="http://www.w3.org/2000/svg" xmlns:xlink="http://www.w3.org/1999/xlink" x="0px" y="0px"
	 width="1000px" height="1000px" viewBox="0 0 1000 1000" enable-background="new 0 0 1000 1000" xml:space="preserve">
<g>
	<circle fill="#FFFFFF" cx="499.725" cy="499.678" r="112.665"/>
	<circle fill="#12102A" cx="499.726" cy="499.584" r="109.552"/>
	<circle fill="#FFFFFF" cx="499.85" cy="499.489" r="85.508"/>
	<path fill="none" d="M499.851,418.732c-35.016,0-64.819,22.283-76.016,53.442h152.032
		C564.669,441.016,534.864,418.732,499.851,418.732z"/>
	<g>
		<g>
			<path fill="#C6C5C5" d="M478.363,498.8c0-0.184-0.011-0.364-0.012-0.548l6.133,3.425l1-1.792l-7.186-4.015
				c-0.071-2.697-0.233-5.37-0.496-8.016l6.475,3.165l0.903-1.843l-7.645-3.739c-0.321-2.637-0.741-5.243-1.247-7.819l6.978,2.273
				l0.636-1.951l-8.075-2.634c-0.506-2.315-1.101-4.597-1.752-6.854l6.811,1.392l0.409-2.013l-7.869-1.608
				c-0.615-1.975-1.294-3.921-2.016-5.846l7.1,1.45l0.411-2.014l-8.394-1.715c-0.904-2.256-1.885-4.472-2.933-6.65l7.233,0.767
				l0.213-2.044l-8.511-0.9c-1.165-2.291-2.418-4.528-3.735-6.722l7.019-0.001l-0.001-2.054l-8.261,0.001
				c-1.354-2.147-2.792-4.237-4.288-6.28l6.65-0.555l-0.171-2.045l-7.932,0.66c-0.686-0.895-1.371-1.791-2.084-2.663l-2.649,1.449
				c0.764,0.925,1.5,1.873,2.233,2.824l-2.901,7.869l1.927,0.71l2.441-6.617c1.51,2.056,2.96,4.158,4.323,6.323l-3.418,7.321
				l1.862,0.869l2.834-6.074c1.301,2.179,2.528,4.406,3.675,6.683l-4.012,6.659l1.76,1.061l3.332-5.53
				c0.995,2.094,1.915,4.23,2.774,6.397l-4.635,6.246l1.654,1.221l3.863-5.21c0.65,1.756,1.251,3.535,1.811,5.333l-4.952,6.671
				l1.653,1.226l4.024-5.429c0.636,2.235,1.203,4.498,1.694,6.791l-5.339,5.708l1.503,1.403l4.334-4.638
				c0.453,2.39,0.82,4.809,1.11,7.252l-6.094,4.926l1.294,1.596l5.069-4.097c0.238,2.493,0.377,5.012,0.44,7.552l-6.576,4.74
				l1.203,1.668l5.428-3.913c0,0.066,0.004,0.132,0.004,0.199c0,2.054-0.079,4.089-0.194,6.114l-6.897,4.016l1.032,1.777
				l5.701-3.318c-0.159,1.996-0.363,3.979-0.631,5.942l-7.303,3.734l0.937,1.831l5.975-3.058c-0.333,2.069-0.707,4.125-1.157,6.152
				l-7.26,3.27l0.843,1.873l5.801-2.611c-0.479,1.93-1.001,3.841-1.583,5.728l-7.43,2.926l0.751,1.911l5.853-2.303
				c-0.687,2.039-1.425,4.054-2.23,6.035l-7.574,2.123l0.557,1.978l5.992-1.68c-0.776,1.783-1.598,3.541-2.467,5.272l-7.739,1.397
				l0.367,2.026l6.184-1.119c-0.874,1.64-1.794,3.249-2.75,4.836l-7.938,0.577l0.147,2.05l6.479-0.47
				c-0.954,1.502-1.954,2.97-2.979,4.42l-7.568,0.132l0.037,2.056l6.023-0.106c-1.067,1.434-2.157,2.848-3.293,4.225l1.65,2.654
				c1.635-1.944,3.185-3.96,4.683-6.017l3.34,6.845l1.846-0.904l-3.825-7.831c1.001-1.438,1.962-2.904,2.896-4.391l3.513,6.294
				l1.795-1l-4.076-7.302c1.066-1.783,2.091-3.594,3.058-5.44l4.239,6l1.677-1.183L467,547.362c0.948-1.912,1.859-3.846,2.697-5.819
				l4.807,5.595l1.558-1.343l-5.5-6.404c0.861-2.153,1.67-4.333,2.396-6.553l5.298,5.032l1.415-1.489l-6.039-5.734
				c0.619-2.036,1.182-4.095,1.683-6.179l5.519,4.758l1.342-1.555l-6.339-5.465c0.448-2.058,0.829-4.139,1.16-6.237l5.523,4.299
				l1.263-1.621l-6.42-4.995c0.288-2.121,0.493-4.268,0.657-6.426l5.851,4.064l1.171-1.687l-6.861-4.768
				C478.29,502.836,478.363,500.827,478.363,498.8z"/>
		</g>
	</g>
	<g>
		<g>
			<path fill="#C6C5C5" d="M551.397,560.362l-7.566-0.132c-1.025-1.45-2.025-2.918-2.979-4.42l6.479,0.47l0.146-2.05l-7.936-0.577
				c-0.956-1.586-1.876-3.195-2.75-4.835l6.181,1.118l0.366-2.026l-7.735-1.397c-0.87-1.73-1.691-3.488-2.467-5.271l5.991,1.679
				l0.554-1.978l-7.571-2.122c-0.805-1.981-1.543-3.996-2.229-6.034l5.849,2.301l0.754-1.911l-7.429-2.925
				c-0.583-1.887-1.104-3.799-1.584-5.729l5.798,2.611l0.845-1.873l-7.258-3.269c-0.45-2.027-0.824-4.082-1.157-6.15l5.971,3.055
				l0.938-1.831l-7.3-3.732c-0.269-1.964-0.473-3.947-0.632-5.943l5.697,3.317l1.032-1.777l-6.895-4.014
				c-0.114-2.026-0.193-4.062-0.193-6.116c0-0.066,0.004-0.132,0.004-0.198l5.425,3.912l1.202-1.668l-6.571-4.736
				c0.063-2.54,0.202-5.062,0.44-7.555l5.068,4.097l1.29-1.596l-6.09-4.923c0.29-2.444,0.657-4.863,1.11-7.254l4.334,4.637
				l1.501-1.403l-5.337-5.708c0.49-2.292,1.057-4.554,1.692-6.789l4.023,5.426l1.652-1.226l-4.949-6.67
				c0.559-1.797,1.159-3.575,1.81-5.331l3.861,5.207l1.652-1.221l-4.631-6.245c0.859-2.167,1.777-4.302,2.772-6.396l3.329,5.527
				l1.763-1.061l-4.013-6.655c1.146-2.277,2.374-4.506,3.676-6.686l2.83,6.073l1.862-0.869l-3.415-7.32
				c1.362-2.165,2.813-4.267,4.322-6.323l2.439,6.616l1.93-0.71l-2.903-7.866c0.733-0.952,1.471-1.901,2.235-2.827l-2.65-1.449
				c-0.713,0.873-1.398,1.768-2.084,2.663l-7.932-0.66l-0.174,2.045l6.652,0.556c-1.497,2.043-2.934,4.132-4.288,6.28l-8.261-0.001
				l-0.002,2.054l7.02,0.001c-1.317,2.194-2.57,4.431-3.735,6.722l-8.513,0.901l0.217,2.044l7.23-0.767
				c-1.047,2.179-2.027,4.395-2.932,6.65l-8.394,1.715l0.412,2.014l7.099-1.45c-0.723,1.925-1.401,3.872-2.016,5.847l-7.87,1.607
				l0.409,2.013l6.811-1.392c-0.65,2.258-1.245,4.538-1.752,6.853l-8.077,2.635l0.636,1.951l6.979-2.274
				c-0.505,2.576-0.925,5.182-1.246,7.82l-7.643,3.739l0.899,1.843l6.477-3.165c-0.263,2.646-0.425,5.319-0.496,8.017l-7.188,4.014
				l1,1.792l6.135-3.425c-0.001,0.184-0.012,0.364-0.012,0.548c0,2.027,0.073,4.037,0.182,6.037l-6.861,4.767l1.173,1.687
				l5.85-4.064c0.165,2.158,0.369,4.305,0.657,6.426l-6.417,4.995l1.261,1.621l5.522-4.3c0.331,2.1,0.712,4.182,1.16,6.239
				l-6.338,5.464l1.34,1.555l5.521-4.759c0.5,2.084,1.064,4.143,1.683,6.179l-6.039,5.735l1.415,1.489l5.299-5.03
				c0.726,2.219,1.534,4.398,2.395,6.552l-5.5,6.403l1.558,1.343l4.808-5.596c0.838,1.975,1.749,3.909,2.698,5.821l-4.875,6.898
				l1.677,1.183l4.24-6c0.966,1.848,1.991,3.658,3.059,5.442l-4.075,7.3l1.794,1l3.512-6.293c0.934,1.486,1.895,2.953,2.896,4.39
				l-3.824,7.831l1.844,0.904l3.343-6.843c1.498,2.056,3.048,4.071,4.682,6.015l1.652-2.654c-1.136-1.377-2.227-2.791-3.293-4.225
				l6.02,0.106L551.397,560.362z"/>
		</g>
	</g>
	<g>
		<path d="M452.305,441.337l8.271,0.005c6.593,0.008,5.814,3.122,4.597,6.545c-1.229,3.45-2.673,6.565-9.236,6.565l-8.28-0.002
			L452.305,441.337z M454.226,452l1.136,0.001c2.202-0.01,2.689-0.548,3.924-4.11c1.264-3.531,1.185-4.094-1.022-4.088l-1.136,0.002
			L454.226,452z"/>
		<path d="M476.219,441.078c5.813,0.004,7.125,1.91,5.399,6.813c-1.744,4.921-4.413,6.83-10.235,6.83
			c-5.821-0.006-7.124-1.916-5.393-6.83C467.72,442.995,470.393,441.086,476.219,441.078 M472.205,452.409
			c1.748-0.005,2.265-0.957,3.523-4.519c1.251-3.53,1.411-4.501-0.327-4.492c-1.75,0.003-2.279,0.961-3.517,4.493
			C470.609,451.448,470.457,452.401,472.205,452.409"/>
		<path d="M492.678,441.082c5.816,0,7.135,1.912,5.399,6.81c-1.746,4.917-4.402,6.826-10.227,6.82c-5.826,0-7.134-1.903-5.402-6.82
			C484.195,442.998,486.857,441.091,492.678,441.082 M488.671,452.404c1.735,0.011,2.269-0.948,3.521-4.513
			c1.25-3.527,1.409-4.489-0.354-4.497c-1.73,0.004-2.242,0.961-3.511,4.506C487.085,451.458,486.93,452.404,488.671,452.404"/>
		<path d="M508.652,445.133l0.125-0.308c0.257-0.78-0.034-1.419-1.134-1.423c-1.216,0.004-1.975,0.573-2.194,1.148
			c-0.898,2.601,8.843,1.337,7.148,6.13c-0.985,2.789-4.151,4.037-9.167,4.04c-4.723,0-7.009-0.972-6.046-3.695l0.158-0.451
			l5.498,0.004l-0.098,0.306c-0.401,1.117,0.222,1.521,1.337,1.515c1.153,0.017,2.015-0.547,2.27-1.268
			c0.934-2.587-8.479-1.298-6.83-5.958c0.942-2.627,3.804-4.087,8.62-4.092c4.966,0.01,6.643,1.234,5.637,4.047L508.652,445.133z"/>
		<path d="M520.886,441.35l7.152,0.005l0.675,13.106l-6.062-0.005l0.243-2.294l-4.538-0.01l-1.38,2.305l-6.07-0.005L520.886,441.35z
			 M523.551,444.027h-0.061l-3.538,5.576h3.189L523.551,444.027z"/>
		<polygon points="534.086,441.351 540.435,441.354 541.252,449.434 541.319,449.435 544.185,441.345 549.512,441.345 
			544.865,454.465 538.613,454.456 537.689,446.367 537.629,446.358 534.75,454.465 529.437,454.453 		"/>
	</g>
	<g>
		<g>
			<polygon points="481.08,552.653 481.08,558.088 478.192,560.928 472.319,560.928 469.628,558.185 469.628,555.224 
				474.311,555.224 474.311,556.68 476.276,556.68 476.276,554.375 471.665,554.375 469.505,552.144 469.505,547.51 
				472.319,544.741 478.337,544.741 480.884,547.341 480.884,550.008 476.396,550.008 476.396,548.965 474.311,548.965 
				474.311,550.518 479.016,550.518 			"/>
			<polygon points="479.673,553.234 478.241,551.804 473.437,551.804 472.879,551.245 472.879,548.502 473.801,547.606 
				476.856,547.606 477.706,548.502 477.706,548.745 479.673,548.745 479.673,548.141 477.706,546.129 473.001,546.129 
				470.963,548.141 470.963,551.584 472.442,553.088 477.198,553.088 477.706,553.648 477.706,557.142 476.738,558.088 
				473.801,558.088 472.879,557.142 472.879,556.462 470.963,556.462 470.963,557.456 473.001,559.519 477.513,559.519 
				479.673,557.456 			"/>
		</g>
		<g>
			<polygon points="493.82,544.741 493.82,549.935 489.479,549.935 489.479,548.965 487.391,548.965 487.391,550.688 
				491.226,550.688 491.226,554.811 487.391,554.811 487.391,556.68 489.479,556.68 489.479,555.517 493.82,555.517 493.82,560.928 
				481.425,560.928 481.425,556.68 482.541,556.68 482.541,548.965 481.425,548.965 481.425,544.741 			"/>
			<polygon points="492.365,546.129 482.878,546.129 482.878,547.606 483.994,547.606 483.994,558.088 482.878,558.088 
				482.878,559.519 492.365,559.519 492.365,556.945 490.911,556.945 490.911,558.088 485.912,558.088 485.912,553.38 
				489.794,553.38 489.794,552.071 485.912,552.071 485.912,547.606 490.911,547.606 490.911,548.553 492.365,548.553 			"/>
		</g>
		<g>
			<polygon points="505.951,547.606 505.951,558.088 503.088,560.928 496.951,560.928 494.161,558.088 494.161,547.532 
				497.022,544.741 503.088,544.741 			"/>
			<polygon points="504.497,548.188 502.433,546.129 497.703,546.129 495.567,548.188 495.567,557.43 497.534,559.519 
				502.433,559.519 504.497,557.503 			"/>
			<polygon points="502.556,548.553 502.556,557.117 501.609,558.088 498.405,558.088 497.534,557.117 497.534,548.553 
				498.503,547.606 501.609,547.606 			"/>
			<rect x="498.938" y="548.965" fill="#FFFFFF" width="2.185" height="7.715"/>
		</g>
		<g>
			<polygon points="520.314,544.741 520.314,548.965 519.028,548.965 519.028,558.088 516.189,560.928 510.245,560.928 
				507.431,558.088 507.431,548.965 506.17,548.965 506.17,544.741 512.913,544.741 512.913,548.821 512.285,548.821 
				512.285,556.68 514.223,556.68 514.223,548.821 513.596,548.821 513.596,544.741 			"/>
			<polygon points="518.883,546.129 514.88,546.129 514.88,547.606 515.657,547.606 515.657,557.165 514.734,558.088 
				511.726,558.088 510.854,557.165 510.854,547.606 511.629,547.606 511.629,546.129 507.625,546.129 507.625,547.606 
				508.889,547.606 508.889,557.48 510.854,559.519 515.559,559.519 517.596,557.577 517.596,547.606 518.883,547.606 			"/>
		</g>
		<g>
			<polygon points="528.223,544.741 528.223,548.965 526.89,548.965 526.89,556.68 528.683,556.68 528.683,554.084 533.002,554.084 
				533.002,560.928 520.968,560.928 520.968,556.68 522.086,556.68 522.086,548.965 520.968,548.965 520.968,544.741 			"/>
			<polygon points="526.791,546.129 522.424,546.129 522.424,547.606 523.54,547.606 523.54,558.088 522.424,558.088 
				522.424,559.519 531.57,559.519 531.57,555.467 530.115,555.467 530.115,558.088 525.457,558.088 525.457,547.606 
				526.791,547.606 			"/>
		</g>
	</g>
	<g>
		<path fill="#EC1C24" d="M499.851,418.732c30.822,0,57.602,17.272,71.211,42.662h5.344c-14.014-28.101-43.022-47.41-76.555-47.41
			c-33.533,0-62.545,19.31-76.554,47.41h5.343C442.249,436.005,469.025,418.732,499.851,418.732z"/>
		<path fill="#EC1C24" d="M499.851,580.248c-31.041,0-57.972-17.518-71.491-43.198h-5.333
			c13.909,28.394,43.077,47.949,76.824,47.949c33.744,0,62.915-19.556,76.823-47.949h-5.334
			C557.821,562.73,530.889,580.248,499.851,580.248z"/>
	</g>
	<g>
		<g>
			<g>
				<polygon fill="#FFFFFF" points="417.993,475.07 417.993,492.676 415.06,495.922 417.993,499.053 417.993,517.61 406.017,529.24 
					366.946,529.24 366.946,510.527 371.386,510.527 371.386,483 366.966,482.966 366.966,464.266 407.236,464.266 				"/>
			</g>
			<g>
				<polygon fill="#FFFFFF" points="467.812,464.261 467.812,485.505 448.848,485.505 448.848,481.851 442.774,481.851 
					442.774,486.541 457.588,486.541 457.588,504.467 442.774,504.467 442.774,509.65 448.848,509.65 448.848,506.018 
					467.71,506.018 467.812,528.314 417.589,528.314 417.589,509.946 421.594,509.946 421.594,481.802 417.931,481.802 
					417.931,464.23 				"/>
			</g>
			<g>
				<polygon fill="#FFFFFF" points="507.392,464.261 521.555,510.547 527.354,510.547 527.354,529.24 498.997,529.24 
					498.997,511.548 502.945,511.548 502.353,509.585 491.787,509.585 491.391,511.548 494.849,511.548 494.849,529.24 
					467.619,529.24 467.71,506.018 472.76,511.375 488.335,464.261 				"/>
			</g>
			<g>
				<polygon fill="#FFFFFF" points="582.965,510.547 582.965,529.24 555.608,529.24 555.608,511.758 556.533,511.758 
					554.028,505.834 551.362,505.834 551.362,511.758 555.116,511.758 555.116,529.24 526.772,529.24 526.772,510.537 
					531.714,510.537 531.714,482.97 527.292,482.97 527.292,464.251 567.048,464.251 578.009,475.431 577.831,494.574 
					572.595,499.908 577.336,510.547 				"/>
			</g>
			<g>
				<polygon fill="#FFFFFF" points="628.727,495.332 628.51,517.775 616.623,529.24 593.264,529.24 582.275,518.395 
					582.271,504.904 602.225,504.904 602.225,510.666 607.95,510.666 607.95,503.951 590.841,503.951 581.853,494.969 
					581.782,475.727 593.387,464.264 617.746,464.251 627.738,474.452 627.738,487.119 608.248,487.119 608.248,482.817 
					602.126,482.817 602.126,486.723 620.971,487.188 				"/>
			</g>
		</g>
		<g>
			<g>
				<polygon fill="#FFFFFF" points="423.081,481.124 423.081,497.848 422.986,501.28 423.081,504.225 422.014,522.783 
					410.871,533.74 371.341,533.721 366.971,529.202 376.598,515.743 376.598,488.193 372.052,488.193 372.052,469.438 
					411.78,469.438 				"/>
			</g>
			<g>
				<polygon fill="#FFFFFF" points="472.57,469.322 472.57,491.144 453.608,491.144 453.608,487.617 447.534,487.617 
					447.534,490.293 462.491,490.293 462.491,510.234 447.534,510.234 447.534,515.418 453.608,515.418 453.608,511.122 
					472.57,511.279 472.548,533.74 422.762,533.74 416.893,527.616 426.351,515.714 426.351,487.566 422.35,487.566 467.7,464.334 
									"/>
			</g>
			<g>
				<polygon fill="#FFFFFF" points="512.246,469.27 526.567,516.042 532.367,516.042 532.367,533.721 492.908,533.74 
					492.908,516.72 507.958,516.72 507.366,514.757 496.799,514.757 496.403,516.72 499.861,516.72 499.861,533.74 472.548,533.74 
					472.548,516.042 477.947,516.042 507.392,464.261 				"/>
			</g>
			<g>
				<polygon fill="#FFFFFF" points="587.738,516.296 587.738,533.721 554.829,533.721 560.692,517.187 561.619,517.187 
					559.115,511.259 556.448,511.259 556.448,517.187 560.203,517.187 560.203,533.721 531.859,533.721 531.859,516.296 
					536.697,516.296 536.697,488.249 532.152,488.249 532.152,469.739 572.409,469.739 582.6,480.083 582.646,498.901 
					577.222,504.298 582.382,515.528 				"/>
			</g>
			<g>
				<polygon fill="#FFFFFF" points="633.284,500.011 633.284,522.041 621.432,533.77 597.829,533.799 587.594,523.584 
					587.161,510.405 607.31,510.405 607.31,515.84 613.038,515.84 613.038,509.122 595.885,509.161 587.212,500.179 
					586.594,480.606 598.112,469.283 622.381,468.985 632.53,479.33 632.514,491.407 613.334,491.407 613.334,487.989 
					607.212,487.989 607.212,491.895 625.385,491.895 				"/>
			</g>
		</g>
		<g>
			<polygon fill="#FFFFFF" points="632.142,500.478 632.142,521.553 620.945,532.561 598.175,532.561 587.734,521.927 
				587.734,510.447 605.893,510.447 605.893,516.093 613.513,516.093 613.513,507.156 595.637,507.156 587.263,498.503 
				587.263,480.532 598.175,469.807 621.508,469.807 631.388,479.873 631.388,490.224 613.982,490.224 613.982,486.177 
				605.893,486.177 605.893,492.197 624.146,492.197 			"/>
		</g>
		<g>
			<g>
				<polygon fill="#12102A" points="421.767,480.91 421.767,497.188 418.715,500.478 421.767,503.523 421.767,521.458 
					410.381,532.563 372.372,532.563 368.181,528.22 376.796,516.095 376.796,486.178 377.321,485.909 372.372,469.809 
					411.04,469.809 				"/>
			</g>
			<g>
				<polygon fill="#12102A" points="369.316,527.81 377.248,516.554 377.248,485.147 372.744,485.147 372.744,470.137 
					410.173,470.233 421.21,481.103 421.21,496.872 417.785,500.515 421.2,503.893 421.2,512.14 420.573,512.038 420.318,522.06 
					410.369,531.678 373.086,531.685 				"/>
			</g>
			<g>
				<polygon fill="#EC1C24" points="417.57,476.564 417.57,492.842 414.655,495.947 417.57,499.048 417.57,517.114 406.185,528.218 
					368.174,528.218 368.174,511.751 372.597,511.751 372.597,481.833 368.174,481.833 368.174,465.464 406.843,465.464 				"/>
				<polygon fill="#FFFFFF" points="413.298,479.48 403.456,469.726 372.449,469.726 372.449,477.548 376.861,477.548 
					376.861,516.013 372.438,516.013 372.438,523.944 402.984,523.944 413.298,514.01 413.298,501.12 406.939,496.134 
					413.298,491.147 				"/>
				<polygon fill="#EC1C24" points="399.55,477.548 403.032,480.142 403.032,490.113 399.74,492.313 387.048,492.313 
					387.048,477.548 				"/>
				<polygon fill="#EC1C24" points="399.353,500.036 403.021,502.721 403.021,513.256 399.071,516.003 387.037,516.003 
					387.037,500.036 				"/>
				<rect x="391.319" y="481.833" fill="#12102A" width="7.435" height="6.209"/>
				<rect x="391.319" y="504.321" fill="#12102A" width="7.435" height="7.43"/>
			</g>
			<g>
				<polygon fill="#12102A" points="471.383,469.809 471.362,489.96 454.433,489.96 454.542,486.178 446.455,486.178 
					453.042,484.092 461.315,492.898 461.315,508.853 446.455,508.853 446.455,516.095 454.542,516.095 467.186,507.236 
					471.383,511.579 471.383,532.563 423.308,532.563 419.109,528.218 429.403,524.124 427.633,486.178 430.193,486.99 
					467.192,465.457 				"/>
			</g>
			<polygon fill="#12102A" points="456.753,489.32 460.425,493.249 460.425,507.978 445.613,507.978 445.613,516.962 
				455.29,516.962 467.141,508.455 470.499,511.912 470.499,531.68 423.658,531.68 419.838,527.724 428.43,516.865 428.43,485.458 
				424.154,485.458 466.601,466.146 470.499,470.194 470.5,489.071 456.74,489.071 			"/>
			<g>
				<polygon fill="#EC1C24" points="467.186,465.464 467.186,485.596 450.347,485.596 450.347,481.833 442.255,481.833 
					442.255,488.516 457.12,488.516 457.12,504.505 442.255,504.505 442.255,511.751 450.347,511.751 450.347,507.236 
					467.186,507.236 467.186,528.218 419.109,528.218 419.109,511.751 423.438,511.751 423.438,481.833 419.109,481.833 
					419.109,465.464 				"/>
				<polygon fill="#FFFFFF" points="462.913,469.716 423.375,469.716 423.375,477.548 427.706,477.548 427.706,516.013 
					423.375,516.013 423.375,523.932 462.913,523.932 462.913,511.501 454.613,511.501 454.613,516.013 437.983,516.013 
					437.983,500.223 452.845,500.223 452.845,492.781 437.971,492.781 437.971,477.548 454.613,477.548 454.613,481.313 
					462.913,481.313 				"/>
			</g>
			<rect x="491.042" y="501.409" fill="#FFFFFF" width="18.556" height="21.135"/>
			<rect x="548.124" y="501.409" fill="#FFFFFF" width="18.556" height="21.135"/>
			<rect x="598.097" y="503.58" fill="#FFFFFF" width="18.555" height="21.135"/>
			<rect x="548.072" y="501.409" fill="#FFFFFF" width="18.555" height="21.135"/>
			<rect x="598.045" y="503.58" fill="#FFFFFF" width="18.557" height="21.135"/>
			<g>
				<polygon fill="#12102A" points="511.167,469.817 524.66,513.783 526.821,511.758 531.02,516.104 531.02,532.57 504.673,532.57 
					500.717,528.279 508.721,516.762 507.593,513.19 495.641,513.19 494.514,516.762 498.37,516.762 505.655,532.57 472.872,532.57 
					468.675,528.225 478.045,516.104 506.972,465.472 				"/>
			</g>
			<g>
				<polygon fill="#12102A" points="510.38,470.291 524.668,516.881 526.444,512.65 530.135,516.489 530.135,531.676 
					501.695,531.676 497.556,523.538 510.211,517.515 508.42,512.232 494.804,512.232 493.211,517.515 497.372,517.515 
					504.649,531.676 473.234,531.676 469.396,527.681 479.168,517.071 506.728,466.501 				"/>
			</g>
			<rect x="491.05" y="501.414" fill="#12102A" width="18.555" height="21.138"/>
			<g>
				<polygon fill="#EC1C24" points="506.972,465.472 521.177,511.758 526.821,511.758 526.821,528.225 500.478,528.225 
					500.478,512.417 504.522,512.417 503.395,508.846 491.442,508.846 490.313,512.417 494.171,512.417 494.171,528.225 
					468.675,528.225 468.675,511.758 473.849,511.758 489.188,465.472 				"/>
				<polygon fill="#FFFFFF" points="503.789,469.749 492.267,469.749 476.954,516.012 472.941,516.012 472.941,523.95 
					489.901,523.95 489.901,516.012 484.468,516.012 488.458,504.574 506.435,504.574 510.233,516.001 504.736,516.001 
					504.736,523.948 522.548,523.948 522.548,516.012 517.996,516.012 				"/>
				<polygon fill="#EC1C24" points="498.125,476.571 505.369,499.915 489.469,499.915 497.092,476.571 				"/>
				<polygon fill="#12102A" points="497.561,489.177 495.399,495.67 499.631,495.67 				"/>
			</g>
			<g>
				<polygon fill="#FFFFFF" points="581.697,512.674 585.958,516.941 585.958,531.727 562.256,531.727 554.441,523.144 
					564.329,517.862 559.887,508.284 554.453,508.284 554.453,517.862 557.813,517.862 563.78,531.727 533.459,531.727 
					529.226,527.398 538.061,516.973 538.061,485.566 533.459,485.566 533.459,470.507 570.418,470.718 580.624,481.061 
					580.624,497.912 574.701,503.966 579.724,514.057 				"/>
			</g>
			<rect x="548.133" y="501.414" fill="#FFFFFF" width="18.557" height="21.138"/>
			<rect x="598.104" y="503.588" fill="#FFFFFF" width="18.557" height="21.135"/>
			<polygon fill="#12102A" points="582.331,511.755 586.55,516.03 586.579,532.56 561.522,532.548 553.221,523.685 562.935,517.19 
				559.264,509.194 555.221,509.194 555.221,517.19 558.51,517.19 564.481,532.548 532.891,532.56 528.53,528.229 537.154,516.25 
				537.154,486.333 535.246,485.959 532.732,469.963 570.816,469.735 581.449,480.553 581.453,498.452 575.8,504.057 
				580.36,513.907 			"/>
			<polygon fill="#12102A" points="632.101,500.486 632.101,521.562 620.903,532.57 598.208,532.584 587.767,521.947 
				587.69,510.458 605.85,510.458 605.85,516.104 613.472,516.104 613.472,507.164 595.593,507.164 587.218,498.513 
				587.218,480.542 598.133,469.817 621.465,469.817 631.343,479.882 631.343,490.23 613.94,490.23 613.94,486.186 605.85,486.186 
				605.85,492.204 624.102,492.204 			"/>
			<polygon fill="#12102A" points="632.101,500.486 632.101,521.562 620.903,532.57 598.208,532.584 587.767,521.947 
				587.69,510.458 605.85,510.458 605.85,516.104 613.472,516.104 613.472,507.164 595.593,507.164 587.218,498.513 
				587.218,480.542 598.133,469.817 621.472,469.759 631.348,479.793 631.343,490.23 613.94,490.23 613.94,486.186 605.85,486.186 
				603.617,489.978 621.872,489.978 			"/>
			<path fill="#12102A" d="M581.62,512.458l3.999,4.147l0.063,15.072l-23.594,0.002l-7.843-8.508l9.889-5.282l-4.443-9.579h-5.434
				v9.579h3.362l5.993,13.79l-30.476,0.011l-4.337-4.302l9.063-10.387v-31.406h-4.598v-15.059l36.937,0.064l10.208,10.345
				l0.019,17.088l-5.818,5.852l4.756,10.339C579.516,514.38,581.62,512.458,581.62,512.458z"/>
			<polygon fill="#12102A" points="631.214,500.829 631.211,521.208 620.563,531.68 598.58,531.69 588.443,521.411 588.521,511.335 
				605.171,511.335 605.171,516.866 614.357,516.866 614.357,506.296 595.891,506.296 588.061,498.199 588.061,480.97 
				598.719,470.501 620.917,470.44 630.475,480.2 630.461,489.344 614.852,489.344 614.852,485.361 604.977,485.361 
				604.977,492.964 623.436,492.781 			"/>
			<rect x="548.082" y="501.414" fill="#12102A" width="18.553" height="21.138"/>
			<rect x="598.05" y="503.588" fill="#12102A" width="18.56" height="21.135"/>
			<rect x="601.411" y="472.776" fill="#12102A" width="18.553" height="21.137"/>
			<polygon fill="#EC1C24" points="582.337,511.758 582.337,528.225 557.31,528.225 557.31,512.701 558.723,512.701 
				555.052,504.703 551.006,504.703 551.006,512.701 554.302,512.701 554.302,528.225 528.522,528.225 528.522,511.758 
				532.943,511.758 532.943,481.841 528.522,481.841 528.522,465.472 566.623,465.472 577.258,476.288 577.258,493.883 
				571.425,499.716 576.972,511.758 			"/>
			<polygon fill="#FFFFFF" points="578.059,515.99 574.272,515.99 566.293,498.831 572.993,492.01 572.974,477.946 564.79,469.679 
				532.779,469.679 532.779,477.536 537.2,477.536 537.2,515.992 532.787,515.992 532.787,523.932 550.038,523.932 550.038,515.992 
				546.744,515.992 546.744,500.417 557.902,500.443 565.16,515.992 561.553,515.992 561.553,523.932 578.059,523.932 			"/>
			<polygon fill="#EC1C24" points="563.352,480.999 563.352,488.602 559.398,492.553 547.367,492.553 547.367,477.519 
				559.774,477.519 			"/>
			<rect x="551.656" y="481.802" fill="#12102A" width="7.431" height="6.493"/>
			<polygon fill="#EC1C24" points="627.901,496.143 627.901,517.216 616.704,528.225 593.935,528.225 583.494,517.591 
				583.494,506.113 601.65,506.113 601.65,511.758 609.271,511.758 609.271,502.821 591.396,502.821 583.022,494.165 
				583.022,476.195 593.935,465.472 617.269,465.472 627.148,475.538 627.148,485.885 609.741,485.885 609.741,481.841 
				601.65,481.841 601.65,487.859 619.905,487.859 			"/>
			<polygon fill="#FFFFFF" points="623.63,497.882 618.058,492.129 599.547,492.113 597.383,489.944 597.383,481.044 
				600.958,477.566 610.712,477.566 614.006,481.044 614.006,481.607 623.655,481.607 623.652,478.052 615.44,469.716 
				595.657,469.716 587.279,478.052 587.289,492.428 593.168,498.54 611.563,498.54 613.538,500.704 613.538,512.354 
				609.773,516.021 600.947,516.021 597.372,512.354 597.372,510.369 587.757,510.369 587.757,515.855 595.795,523.972 
				614.905,523.925 623.626,515.513 			"/>
		</g>
	</g>
</g>
</svg>
